<svg fill="none" viewBox="0 0 112 112" xmlns="http://www.w3.org/2000/svg">
  <defs>
    <linearGradient id="strike5MarkGradient" x1="31" x2="79" y1="11" y2="107">
      <stop stop-color="#00F0A6" />
      <stop offset="1" stop-color="#00D9FF" />
    </linearGradient>
    <mask id="strike5MarkMask" maskUnits="userSpaceOnUse" x="0" y="0" width="112" height="112">
      <rect width="112" height="112" fill="black" />
      <path d="M31.6 8H101.4L93.8 31.6H55.2C47.2 31.6 42.3 35.8 39.7 44.1L37.9 49.9H89.6L76.3 68.1H55.9C49 68.1 44.4 71.5 41.2 78.1L25.2 109H4.8L24.5 75.2H13.3L20.2 57.8H30.5L31.6 8Z" fill="white" />
      <path d="M52.4 34.8H87.3L81.6 47.5H41.9L43.4 42.5C44.9 37.5 47.9 34.8 52.4 34.8Z" fill="black" />
      <path d="M69.7 52.3L32.2 64.8H50.3L25 94.9L65.4 61.4H48.7L69.7 52.3Z" fill="black" />
    </mask>
  </defs>
  <rect width="112" height="112" fill="url(#strike5MarkGradient)" mask="url(#strike5MarkMask)" />
</svg>
